<?xml version="1.0" standalone="no"?>
<!DOCTYPE svg PUBLIC "-//W3C//DTD SVG 20010904//EN"
 "http://www.w3.org/TR/2001/REC-SVG-20010904/DTD/svg10.dtd">
<svg version="1.0" xmlns="http://www.w3.org/2000/svg"
 width="392.000000pt" height="108.000000pt" viewBox="0 0 392.000000 108.000000"
 preserveAspectRatio="xMidYMid meet">

<g transform="translate(0.000000,108.000000) scale(0.100000,-0.100000)"
fill="#000000" stroke="none">
<path d="M506 830 c-86 -43 -199 -166 -256 -279 -28 -57 -60 -157 -60 -190 1
-95 105 -182 181 -151 32 14 149 125 149 141 0 6 9 19 20 31 11 12 20 26 20
31 0 11 -10 3 -90 -64 -54 -46 -112 -80 -158 -94 -18 -5 -26 0 -40 24 -9 17
-20 31 -24 31 -5 0 -8 9 -8 20 0 11 4 20 9 20 5 0 14 27 22 60 7 33 16 60 19
60 4 0 13 18 20 40 7 22 16 40 20 40 4 0 13 12 21 27 41 79 201 215 231 197
13 -8 -1 -52 -38 -122 -31 -56 -43 -102 -28 -102 13 0 44 21 44 30 0 6 9 19
20 30 11 11 20 27 20 35 0 8 4 15 8 15 14 0 32 48 32 85 0 42 -9 65 -25 65 -7
0 -15 9 -18 20 -7 26 -39 26 -91 0z"/>
<path d="M1267 777 c-23 -30 -55 -85 -101 -175 -17 -32 -18 -33 -41 -18 -58
38 -124 -1 -179 -108 -46 -88 -50 -154 -10 -185 15 -12 30 -21 33 -21 13 0 71
53 71 64 0 15 38 38 50 31 6 -4 10 -17 10 -30 0 -25 42 -65 68 -65 17 0 72 48
72 63 0 5 -16 -3 -36 -18 -49 -38 -58 -25 -49 69 4 42 10 76 14 76 11 0 31 47
31 70 0 11 4 20 8 20 10 0 32 45 32 65 0 8 9 24 20 35 11 11 20 29 20 40 0 11
9 29 21 41 21 21 23 69 3 76 -6 2 -23 -11 -37 -30z m-144 -256 c-1 -23 -17
-50 -59 -99 -70 -80 -75 -84 -91 -70 -10 8 -10 13 1 24 8 8 17 28 21 45 7 33
13 42 69 102 41 45 62 44 59 -2z"/>
<path d="M2704 773 c-44 -58 -106 -175 -144 -273 -29 -75 -38 -181 -17 -198
13 -11 19 -9 36 9 12 13 21 31 21 41 0 10 4 18 8 18 5 0 15 12 23 28 8 15 22
36 32 46 9 11 17 23 17 28 0 4 17 24 37 43 70 66 60 -2 -20 -139 -22 -37 -51
-73 -64 -79 -13 -5 -23 -13 -23 -16 0 -12 41 -31 52 -24 29 17 58 48 58 60 0
7 5 13 10 13 6 0 16 12 23 28 6 15 20 36 29 46 10 11 18 28 18 37 0 10 4 19
10 21 5 2 13 25 16 51 6 45 5 51 -21 73 -19 16 -32 21 -44 15 -20 -11 -75 -71
-90 -99 -7 -12 -18 -22 -27 -22 -18 0 -10 40 18 85 10 17 18 38 18 48 0 9 9
26 20 37 11 11 20 29 20 40 0 11 9 29 21 41 21 21 23 69 3 76 -7 2 -25 -13
-40 -34z"/>
<path d="M1734 733 c-22 -32 -64 -106 -95 -166 -66 -129 -129 -204 -204 -243
l-55 -29 -20 21 c-28 27 -19 74 14 74 27 0 106 56 106 76 0 8 4 14 9 14 10 0
31 53 31 77 0 7 -8 17 -17 20 -10 4 -23 13 -29 21 -9 13 -16 12 -47 -3 -48
-23 -91 -72 -127 -148 -17 -33 -37 -69 -46 -79 -18 -19 -6 -26 13 -7 8 8 15 3
27 -18 19 -39 57 -63 97 -63 35 0 105 46 138 91 29 39 41 37 41 -8 0 -44 8
-60 32 -65 19 -3 78 57 78 80 0 6 5 12 10 12 6 0 16 12 23 28 12 29 25 42 43
42 8 0 7 -20 -4 -65 -16 -74 -11 -110 18 -125 29 -15 50 -6 83 36 34 42 30 56
-6 20 -39 -39 -53 -34 -48 16 2 24 10 47 18 53 8 6 17 31 20 55 3 25 11 48 17
53 8 5 8 9 0 15 -6 4 -13 15 -17 25 -11 31 -45 19 -79 -28 -102 -140 -101
-139 -108 -119 -4 10 -1 24 6 32 7 7 16 29 20 50 4 20 10 39 14 42 4 3 16 21
26 42 11 20 34 64 52 99 33 62 40 118 16 126 -6 2 -29 -22 -50 -54z m-242
-202 c-3 -30 -52 -92 -86 -111 -38 -20 -56 0 -27 31 11 13 21 26 21 31 0 4 8
17 18 27 9 11 23 27 30 36 20 23 48 14 44 -14z"/>
<path d="M806 601 c-34 -37 -10 -64 44 -50 27 7 23 -41 -9 -106 -34 -68 -80
-115 -113 -115 -19 0 -20 4 -13 56 4 34 14 65 26 77 10 12 19 29 19 39 0 10 5
18 12 18 8 0 7 6 -4 16 -23 24 -51 4 -82 -58 -28 -55 -33 -106 -15 -141 15
-29 50 -56 71 -57 38 0 153 134 141 166 -3 7 2 21 11 29 19 20 22 95 3 95 -7
0 -17 10 -22 23 -13 29 -46 33 -69 8z"/>
<path d="M2990 602 c-18 -15 -22 -25 -16 -45 6 -26 8 -27 34 -13 16 8 34 11
41 6 24 -14 -24 -130 -79 -191 -42 -45 -90 -44 -90 2 0 16 4 29 8 29 10 0 32
45 32 65 0 8 9 24 20 35 24 24 26 48 5 57 -37 14 -98 -84 -99 -159 -1 -39 4
-52 28 -77 17 -17 40 -31 53 -31 26 0 113 82 113 106 0 8 9 23 20 34 16 16 20
33 20 96 0 67 -2 76 -20 81 -11 3 -20 9 -20 14 0 15 -27 10 -50 -9z"/>
<path d="M2053 589 c-18 -11 -54 -53 -79 -92 -26 -40 -55 -84 -65 -99 -21 -30
-24 -39 -11 -35 5 1 25 -16 46 -37 l37 -40 52 57 c29 31 55 57 59 57 3 0 12
-16 18 -35 17 -52 54 -58 92 -16 23 25 30 29 34 16 4 -8 4 -24 1 -35 -6 -24
16 -56 31 -46 7 4 12 16 12 27 0 10 4 19 9 19 5 0 15 14 22 32 14 35 17 38 84
112 43 46 47 48 85 43 41 -5 57 10 20 20 -11 3 -20 9 -20 14 0 13 -54 11 -67
-2 -16 -16 -32 -3 -26 21 4 14 0 20 -11 20 -9 0 -16 6 -16 13 0 16 -37 -43
-68 -108 -24 -53 -97 -135 -119 -135 -20 0 -17 70 4 85 14 10 18 28 18 77 l0
63 -36 -3 c-26 -2 -38 1 -42 12 -8 21 -25 20 -64 -5z m62 -101 c-44 -68 -95
-128 -109 -128 -16 0 -9 56 11 80 60 73 104 113 115 102 8 -8 4 -22 -17 -54z"/>
<path d="M3533 580 c-12 -19 -39 -74 -61 -121 -41 -89 -105 -159 -144 -159
-16 0 -18 5 -12 37 4 21 13 44 21 51 7 7 16 25 20 40 3 14 15 35 25 47 23 24
22 100 -2 100 -17 0 -59 -60 -99 -141 -28 -58 -82 -114 -109 -114 -17 0 -15
59 3 76 8 9 18 27 21 41 4 14 15 34 25 44 23 23 25 77 3 86 -33 13 -124 -134
-124 -202 0 -25 8 -43 25 -60 31 -32 39 -31 85 5 l38 30 26 -35 c34 -44 56
-44 105 0 l39 36 14 -27 c18 -37 34 -40 42 -9 4 15 11 32 17 38 6 7 19 26 29
42 40 61 46 69 80 102 30 30 40 34 72 30 49 -7 55 2 17 25 -24 15 -41 18 -72
13 -34 -6 -39 -5 -34 9 4 10 1 16 -8 16 -7 0 -15 8 -17 18 -2 13 -8 9 -25 -18z"/>
</g>
</svg>
