<?xml version="1.0" standalone="no"?>
<!DOCTYPE svg PUBLIC "-//W3C//DTD SVG 20010904//EN"
 "http://www.w3.org/TR/2001/REC-SVG-20010904/DTD/svg10.dtd">
<svg version="1.0" xmlns="http://www.w3.org/2000/svg"
 width="391.000000pt" height="113.000000pt" viewBox="0 0 391.000000 113.000000"
 preserveAspectRatio="xMidYMid meet">

<g transform="translate(0.000000,113.000000) scale(0.100000,-0.100000)"
fill="#000000" stroke="none">
<path d="M545 821 c-115 -53 -257 -241 -301 -397 -27 -99 0 -175 76 -214 63
-32 92 -21 183 72 42 43 77 84 77 90 0 6 7 20 17 30 27 30 9 20 -33 -18 -115
-104 -220 -156 -256 -126 -31 25 -2 174 49 255 13 20 21 37 18 37 -3 0 6 12
20 27 14 15 25 32 25 36 0 14 101 106 148 134 26 15 47 22 52 17 11 -11 -8
-67 -49 -148 -36 -69 -28 -96 15 -55 32 29 78 99 70 106 -3 3 1 12 9 20 26 25
18 76 -15 108 -16 15 -27 32 -24 37 9 14 -40 8 -81 -11z m-269 -397 c-8 -21
-15 -31 -15 -22 -1 21 18 72 24 66 3 -3 -1 -22 -9 -44z"/>
<path d="M1303 759 c-21 -30 -55 -84 -73 -121 -36 -70 -52 -80 -89 -57 -64 41
-178 -96 -189 -227 -4 -46 -2 -53 23 -72 15 -12 32 -22 36 -22 5 0 31 24 58
52 28 29 51 50 53 48 2 -3 12 -23 23 -45 13 -25 30 -43 48 -50 27 -9 32 -6 78
45 27 30 49 50 49 44 0 -6 16 -27 35 -47 30 -31 43 -37 77 -37 35 0 47 7 99
57 32 32 62 58 66 58 5 0 10 -20 13 -45 4 -39 8 -45 31 -48 14 -2 31 4 39 12
7 9 9 16 5 16 -5 0 1 8 12 18 11 9 28 30 39 47 10 16 28 40 39 53 18 21 20 21
26 5 3 -10 0 -32 -8 -50 -14 -35 -17 -91 -5 -109 4 -6 18 -17 31 -23 21 -12
27 -9 62 25 40 39 46 63 6 26 -25 -23 -52 -28 -62 -12 -3 6 -1 10 5 10 7 0 10
7 6 15 -3 8 -1 15 5 15 6 0 9 7 5 15 -3 8 -1 15 5 15 6 0 9 7 5 15 -3 8 -1 15
4 15 4 0 16 23 25 51 l17 51 -27 28 c-16 16 -32 27 -37 24 -5 -3 -34 -41 -64
-85 -60 -85 -94 -115 -91 -79 1 11 4 20 7 20 3 0 12 17 19 38 8 20 27 65 43
99 16 34 28 64 26 65 -1 2 7 14 19 27 12 13 20 28 17 33 -3 4 -1 8 5 8 5 0 15
16 21 35 12 35 2 65 -20 65 -18 0 -114 -160 -174 -290 -23 -50 -124 -154 -174
-179 -54 -27 -96 -19 -97 20 0 30 12 44 49 53 51 13 111 71 122 119 1 4 2 8 3
10 2 1 4 11 6 23 6 31 -35 67 -68 59 -46 -12 -104 -73 -142 -147 -41 -83 -76
-132 -111 -155 -23 -14 -26 -14 -44 2 -15 14 -17 20 -8 26 7 4 10 11 6 14 -3
3 0 27 8 52 8 25 11 49 8 54 -3 5 -1 9 5 9 5 0 15 17 22 38 6 20 15 42 20 48
5 6 6 14 2 17 -3 4 -1 7 6 7 7 0 11 6 8 14 -3 8 -2 16 2 18 4 2 29 45 55 97
41 82 45 96 33 109 -13 12 -20 7 -54 -39z m-141 -249 c-2 -23 -20 -54 -64
-106 -65 -77 -82 -87 -91 -54 -3 11 -1 20 3 20 4 0 12 12 18 28 5 15 11 32 13
37 12 33 96 118 111 112 8 -2 12 -17 10 -37z m370 15 c-10 -60 -80 -129 -119
-119 l-22 6 25 26 c13 15 24 30 24 35 0 4 14 23 32 43 34 37 65 42 60 9z m319
-52 c-12 -20 -14 -14 -5 12 4 9 9 14 11 11 3 -2 0 -13 -6 -23z m-858 -61 c-3
-12 -9 -22 -14 -22 -12 0 -11 7 3 30 15 24 19 21 11 -8z m647 -78 c0 -8 -5
-12 -10 -9 -6 4 -8 11 -5 16 9 14 15 11 15 -7z"/>
<path d="M2743 762 c-73 -97 -152 -270 -172 -377 -9 -48 -8 -63 4 -81 18 -28
40 -22 54 14 6 15 20 41 31 57 11 17 23 37 27 45 3 8 30 40 59 70 42 43 54 51
59 38 7 -19 -25 -94 -66 -156 -16 -24 -29 -47 -29 -52 0 -5 -13 -17 -30 -27
-16 -9 -30 -21 -30 -25 0 -7 33 -28 45 -28 9 0 85 82 85 92 0 5 9 18 20 30 10
12 17 25 14 30 -3 4 -1 8 4 8 8 0 26 34 37 73 1 4 3 8 4 10 9 11 9 52 0 63 -6
8 -8 14 -3 14 5 0 -6 8 -25 17 l-34 17 -49 -54 c-26 -30 -48 -58 -48 -61 0 -4
-9 -9 -19 -12 -17 -4 -18 -2 -9 27 6 17 15 36 19 42 5 6 6 14 2 17 -3 4 -2 7
4 7 9 0 27 34 37 70 1 3 14 29 29 58 15 28 24 52 20 52 -5 0 -2 4 6 9 12 7 12
13 3 24 -7 7 -9 17 -5 20 3 4 1 7 -4 7 -6 0 -24 -17 -40 -38z m-76 -189 c-19
-38 -37 -75 -41 -83 -3 -8 -4 -4 -1 10 4 25 63 140 71 140 2 0 -11 -30 -29
-67z"/>
<path d="M846 594 c-9 -9 -16 -26 -14 -38 3 -20 11 -23 53 -15 18 4 20 -1 17
-35 -4 -51 -32 -105 -80 -156 -43 -44 -57 -49 -70 -22 -11 19 20 126 44 153
29 33 2 79 -28 47 -48 -51 -61 -83 -62 -145 -1 -58 1 -65 28 -88 16 -14 37
-25 48 -25 18 0 98 65 98 81 0 5 7 17 15 26 8 10 14 21 13 24 -2 3 3 13 11 22
7 10 10 17 5 17 -5 0 -3 4 5 9 8 5 15 30 16 60 3 42 -1 56 -18 71 -11 11 -24
20 -28 20 -4 0 -14 3 -22 6 -8 3 -22 -2 -31 -12z"/>
<path d="M3027 592 c-35 -38 -11 -75 33 -52 35 19 42 0 23 -61 -31 -97 -99
-174 -144 -162 -15 4 -16 9 -8 31 5 14 8 31 5 39 -3 7 -1 13 5 13 6 0 9 7 5
15 -3 8 -1 15 3 15 5 0 14 12 20 28 6 15 16 35 23 44 10 13 10 20 1 29 -30 30
-97 -63 -110 -152 -5 -32 0 -42 29 -74 29 -32 39 -37 62 -31 25 6 97 73 99 92
1 5 8 17 17 27 8 10 16 22 16 27 1 6 3 12 4 15 1 3 4 10 5 15 1 6 3 11 5 13 1
1 3 9 5 18 1 9 6 26 9 37 5 15 -2 31 -25 56 -35 40 -58 45 -82 18z"/>
<path d="M2093 580 c-36 -22 -52 -41 -98 -120 -21 -36 -49 -77 -63 -92 -14
-16 -21 -28 -14 -28 6 0 14 5 17 10 8 12 35 -6 35 -23 0 -14 32 -36 52 -37 9
0 36 24 59 54 38 49 44 53 56 38 7 -9 13 -22 13 -29 0 -17 29 -43 47 -43 8 0
30 16 48 36 l33 36 -2 -39 c-2 -21 1 -46 6 -55 9 -19 28 -24 28 -9 0 20 72
129 119 180 48 51 52 54 90 48 52 -7 52 7 1 32 -33 16 -42 17 -57 5 -29 -21
-44 -17 -37 10 4 17 0 27 -12 34 -16 9 -24 1 -56 -55 -21 -35 -38 -68 -38 -71
0 -14 -92 -112 -105 -112 -16 0 -28 27 -14 35 5 4 7 10 4 15 -3 5 -1 11 5 15
6 4 8 10 5 15 -3 5 -1 11 5 15 6 4 8 11 5 16 -4 5 -1 9 5 9 7 0 10 7 6 15 -3
8 -1 15 5 15 6 0 9 7 6 15 -4 8 -2 17 4 21 17 10 -22 45 -43 38 -10 -3 -24 -1
-31 4 -24 18 -56 19 -84 2z m73 -86 c-26 -50 -106 -144 -121 -144 -17 0 -20
26 -5 35 6 4 8 11 5 16 -4 5 -2 9 4 9 5 0 13 10 17 23 10 34 93 112 105 100 7
-7 6 -20 -5 -39z m14 -51 c-11 -17 -11 -17 -6 0 3 10 6 24 7 30 0 9 2 9 5 0 3
-7 0 -20 -6 -30z"/>
<path d="M3556 540 c-20 -34 -36 -67 -36 -75 0 -8 -4 -16 -9 -20 -5 -3 -12
-18 -16 -34 -8 -35 -96 -121 -124 -121 -23 0 -36 16 -21 25 6 4 8 10 5 15 -3
5 -1 11 5 15 6 4 8 11 5 16 -4 5 -2 9 3 9 10 0 36 58 33 73 0 4 3 7 8 7 9 0
30 47 37 82 2 10 -5 22 -16 28 -16 8 -23 5 -42 -22 -32 -46 -45 -67 -66 -113
-27 -57 -81 -115 -108 -115 -19 0 -22 4 -18 25 5 31 19 62 44 100 37 58 48 85
39 91 -5 3 -7 9 -4 14 3 5 -3 10 -12 12 -16 4 -63 -33 -63 -49 0 -4 -6 -14
-14 -22 -7 -9 -23 -41 -34 -71 -18 -49 -18 -59 -7 -87 12 -29 41 -53 62 -53 5
0 24 14 43 31 l34 31 29 -36 c16 -20 36 -36 44 -36 9 0 35 16 58 35 43 35 55
36 55 3 0 -29 36 -22 49 10 10 26 31 62 41 72 3 3 19 23 35 45 50 67 76 85
117 83 53 -3 56 8 10 30 -35 17 -42 17 -67 4 -22 -11 -29 -11 -35 -1 -5 7 -6
17 -4 24 3 6 -2 17 -10 24 -12 10 -20 2 -50 -49z m-360 -122 c4 -7 3 -8 -4 -4
-7 4 -12 1 -12 -8 0 -9 -5 -16 -10 -16 -7 0 -7 6 0 20 12 23 16 24 26 8z"/>
</g>
</svg>
